<?xml version="1.0" encoding="utf-8"?>

<svg xmlns="http://www.w3.org/2000/svg" xmlns:xlink="http://www.w3.org/1999/xlink" 
  height="512" width="512" viewBox="0 0 512 512">

  <rect width="512" height="512" stroke="red" fill="rgba(255,255,255,0.95)" opacity="0.95" ></rect>

  <path d="M440 227 A40 78,40 0 0 435 152 A100 400,30 0 0 350 115 A100 330,0 0 0 270 122 A70 7,0 0 0 180 130 A100 350,150 0 0 80 194 M80 194 A200 150,5 1 0 440 227" stroke-width="5" stroke="#F00" fill="none" opacity="0.3"/>
  <circle fill="#FF4343" stroke="#890000" cx="85" cy="190" r="1"/>

  <circle cx="0" cy="0" r="1" stroke="blue" fill="none">
    <animateMotion dur="6s" path="M440 227 A40 78,40 0 0 435 152 A100 400,30 0 0 350 115 A100 330,0 0 0 270 122 A70 7,0 0 0 180 130 A100 350,150 0 0 80 194 M80 194 A200 150,5 1 0 440 227" repeatCount="indefinite" rotate="auto"/>
    <animate attributeName="r" to="15" dur="10s" repeatCount="indefinite"/>
  </circle>

<ellipse fill="black" stroke="black" stroke-width="5" cx="148" cy="300" rx="14" ry="20"/>
<ellipse fill="black" stroke="black" stroke-width="5" cx="340" cy="300" rx="14" ry="20"/>
<ellipse fill="yellow" stroke="black" stroke-width="5" cx="256" cy="340" rx="24" ry="20"/>

</svg>