<?xml version="1.0" encoding="utf-8"?>

<svg xmlns="http://www.w3.org/2000/svg" xmlns:xlink="http://www.w3.org/1999/xlink" 
  height="512" width="512" viewBox="0 0 512 512">


  <!-- 橢圓 -->
  <ellipse fill="#33CCFF" stroke="#000000" stroke-width="5" cx="266" cy="182" rx="180" ry="180"/>
  <circle fill="white" stroke="black" stroke-width="5" cx="266" cy="210" r="150"/>
  <ellipse fill="white" stroke="black" stroke-width="5" cx="230" cy="65" rx="35" ry="55"/>
  <ellipse fill="white" stroke="black" stroke-width="5" cx="300" cy="65" rx="35" ry="55"/>  
  <circle fill="black" stroke="black" stroke-width="5" cx="245" cy="64" r="10"/>
  <circle fill="black" stroke="black" stroke-width="5" cx="285" cy="64" r="10"/>
  <ellipse fill="white" stroke="black" stroke-width="1" cx="245" cy="64" rx="3" ry="5"/>
  <ellipse fill="white" stroke="black" stroke-width="1" cx="285" cy="64" rx="3" ry="5"/>
  <circle cx="260" cy="116" r="24" stroke-width="5" stroke="black" fill="red"/>
  <circle fill="white" stroke="#890000" stroke-width="1" cx="250" cy="110" r="7"/>  

  
  <path d="M128 110 L220 135" stroke="black" stroke-width="5"/>
  <path d="M128 155 L220 155" stroke="black" stroke-width="5"/>
  <path d="M128 192 L220 180" stroke="black" stroke-width="5"/>

  <path d="M300 140 L400 110" stroke="black" stroke-width="5"/>
  <path d="M300 153 L400 153" stroke="black" stroke-width="5"/>
  <path d="M300 175 L400 190" stroke="black" stroke-width="5"/>
  
  <path d="M130 200 H400" stroke="black" stroke-width="5"/>
  <path d="M132 202 C300 470,300 300,400,202" stroke="black" stroke-width="5" fill="red"/>




  <!-- 橢圓 -->
  <ellipse fill="#00f1" stroke="#00f9" stroke-width="5" cx="266" cy="182" rx="180" ry="180"/>

</svg>


    