<?xml version="1.0" encoding="UTF-8" standalone="no"?>
<!-- Generator: Adobe Illustrator 24.0.1, SVG Export Plug-In . SVG Version: 6.00 Build 0)  -->

<svg
   version="1.1"
   id="Layer_1"
   x="0px"
   y="0px"
   width="1000px"
   height="1000px"
   viewBox="0 0 1000 1000"
   style="enable-background:new 0 0 1000 1000;"
   xml:space="preserve"
   sodipodi:docname="halloween.svg"
   inkscape:version="1.2.1 (9c6d41e4, 2022-07-14)"
   xmlns:inkscape="http://www.inkscape.org/namespaces/inkscape"
   xmlns:sodipodi="http://sodipodi.sourceforge.net/DTD/sodipodi-0.dtd"
   xmlns="http://www.w3.org/2000/svg"
   xmlns:svg="http://www.w3.org/2000/svg"><defs
   id="defs993" /><sodipodi:namedview
   id="namedview991"
   pagecolor="#ffffff"
   bordercolor="#000000"
   borderopacity="0.25"
   inkscape:showpageshadow="2"
   inkscape:pageopacity="0.0"
   inkscape:pagecheckerboard="0"
   inkscape:deskcolor="#d1d1d1"
   showgrid="false"
   inkscape:zoom="0.57558492"
   inkscape:cx="855.65133"
   inkscape:cy="416.09846"
   inkscape:window-width="1379"
   inkscape:window-height="789"
   inkscape:window-x="61"
   inkscape:window-y="25"
   inkscape:window-maximized="0"
   inkscape:current-layer="Layer_1" />

<g
   id="skeleton_1_"
   sodipodi:insensitive="true"
   style="opacity:0.25">
	<circle
   id="rightShoulder"
   cx="392.79999"
   cy="294.29999"
   r="8.1999998" />
	<circle
   id="rightElbow"
   cx="289.29999"
   cy="294.39999"
   r="8.1999998" />
	
		<circle
   id="rightWrist"
   transform="matrix(0.9951,-0.09853767,0.09853767,0.9951,-29.0274,13.8698)"
   cx="125.9"
   cy="300.79999"
   r="8.1999998" />
	<circle
   id="rightHip"
   cx="443.10001"
   cy="510.10001"
   r="8.1999998" />
	<circle
   id="rightKnee"
   cx="449.5"
   cy="670.29999"
   r="8.1999998" />
	<circle
   id="rightAnkle"
   cx="449.5"
   cy="878.29999"
   r="8.1999998" />
	<circle
   id="leftShoulder"
   cx="605.70001"
   cy="294.29999"
   r="8.1999998" />
	<circle
   id="leftElbow"
   cx="710.09998"
   cy="294"
   r="8.1999998" />
	<circle
   id="leftWrist"
   cx="873.5"
   cy="300.29999"
   r="8.1999998" />
	<circle
   id="leftHip"
   cx="559.5"
   cy="509.29999"
   r="8.1999998" />
	<circle
   id="leftKnee"
   cx="559.5"
   cy="670.29999"
   r="8.1999998" />
	<circle
   id="leftAnkle"
   cx="559.5"
   cy="878.29999"
   r="8.1999998" />
	<polygon
   style="fill:none;stroke:#000000;stroke-miterlimit:10"
   points="443,510.4 559.4,509.6 605.6,294.6 392.7,294.6 "
   id="polygon886" />
	<polyline
   style="fill:none;stroke:#000000;stroke-miterlimit:10"
   points="391.7,294.6 289,294.6 125.7,300.9  "
   id="polyline888" />
	<polyline
   style="fill:none;stroke:#000000;stroke-miterlimit:10"
   points="607.1,294.2 710.3,294.2 873.6,300.6  "
   id="polyline890" />
	<polyline
   style="fill:none;stroke:#000000;stroke-miterlimit:10"
   points="443,510.4 449.4,670.6 449.4,878.6  "
   id="polyline892" />
	<polyline
   style="fill:none;stroke:#000000;stroke-miterlimit:10"
   points="559.4,509.6 559.4,670.6 559.4,878.6  "
   id="polyline894" />
	<circle
   id="rightEye0"
   cx="468.60001"
   cy="160.2"
   r="0.80000001" />
	<circle
   id="rightBrow1"
   cx="466.39999"
   cy="148.3"
   r="0.80000001" />
	<circle
   id="rightBrow4"
   cx="489.70001"
   cy="151.3"
   r="0.80000001" />
	<circle
   id="nose1"
   cx="497.60001"
   cy="161.2"
   r="0.80000001" />
	<circle
   id="rightBrow3"
   cx="479.89999"
   cy="147.3"
   r="0.80000001" />
	<circle
   id="rightEye1"
   cx="473.79999"
   cy="156.5"
   r="0.80000001" />
	<circle
   id="rightBrow0"
   cx="462.39999"
   cy="152"
   r="0.80000001" />
	<circle
   id="rightBrow2"
   cx="472.60001"
   cy="147.3"
   r="0.80000001" />
	<circle
   id="rightEye5"
   cx="473.79999"
   cy="162.5"
   r="0.80000001" />
	<circle
   id="rightEye2"
   cx="480.10001"
   cy="156.5"
   r="0.80000001" />
	<circle
   id="rightEye3"
   cx="485.29999"
   cy="160.7"
   r="0.80000001" />
	<circle
   id="nose0"
   cx="497.60001"
   cy="155.39999"
   r="0.80000001" />
	<circle
   id="nose3"
   cx="497.60001"
   cy="173.8"
   r="0.80000001" />
	<circle
   id="rightNose0"
   cx="486.89999"
   cy="178.3"
   r="0.80000001" />
	<circle
   id="rightMouthCorner"
   cx="480.89999"
   cy="200.39999"
   r="0.80000001" />
	<circle
   id="rightNose1"
   cx="492.10001"
   cy="178.3"
   r="0.80000001" />
	<circle
   id="rightUpperLipTop0"
   cx="487.79999"
   cy="197"
   r="0.80000001" />
	<circle
   id="nose2"
   cx="497.60001"
   cy="166.7"
   r="0.80000001" />
	<circle
   id="nose4"
   cx="497.60001"
   cy="179.10001"
   r="0.80000001" />
	<circle
   id="upperLipTopMid"
   cx="498.39999"
   cy="196.8"
   r="0.80000001" />
	<circle
   id="rightUpperLipTop1"
   cx="494.29999"
   cy="195.89999"
   r="0.80000001" />
	<path
   id="rightMiddleLip"
   d="m 484.5,199.9 c 0.4,0 0.8,0.4 0.8,0.8 0,0.4 -0.4,0.8 -0.8,0.8 -0.4,0 -0.8,-0.4 -0.8,-0.8 0,-0.4 0.4,-0.8 0.8,-0.8 z" />
	<circle
   id="lowerLipBottomMid"
   cx="498.39999"
   cy="210"
   r="0.80000001" />
	<circle
   id="upperLipBottomMid"
   cx="498.39999"
   cy="200.39999"
   r="0.80000001" />
	<circle
   id="lowerLipTopMid"
   cx="498.39999"
   cy="203.5"
   r="0.80000001" />
	<circle
   id="rightUpperLipBottom1"
   cx="494.5"
   cy="199.89999"
   r="0.80000001" />
	<circle
   id="rightLowerLipTop0"
   cx="494.5"
   cy="202.8"
   r="0.80000001" />
	<circle
   id="rightLowerLipBottom1"
   cx="494.29999"
   cy="209.5"
   r="0.80000001" />
	<circle
   id="rightLowerLipBottom0"
   cx="487.29999"
   cy="206.7"
   r="0.80000001" />
	<circle
   id="rightEye4"
   cx="480.10001"
   cy="161.7"
   r="0.80000001" />
	<circle
   id="jawMid"
   cx="498.39999"
   cy="235.8"
   r="0.80000001" />
	<circle
   id="rightJaw7"
   cx="483.39999"
   cy="232.60001"
   r="0.80000001" />
	<circle
   id="rightJaw6"
   cx="473.39999"
   cy="225.89999"
   r="0.80000001" />
	<circle
   id="rightJaw5"
   cx="461.79999"
   cy="213.39999"
   r="0.80000001" />
	<circle
   id="rightJaw4"
   cx="455"
   cy="193.39999"
   r="0.80000001" />
	<circle
   id="rightJaw3"
   cx="454.20001"
   cy="171.7"
   r="0.80000001" />
	<circle
   id="rightJaw2"
   cx="454.20001"
   cy="162.2"
   r="0.80000001" />
	<circle
   id="rightJaw1"
   cx="455"
   cy="150.5"
   r="0.80000001" />
	<circle
   id="rightJaw0"
   cx="457.5"
   cy="141.2"
   r="0.80000001" />
	<circle
   id="topMid"
   cx="498.60001"
   cy="115.1"
   r="0.80000001" />
	<circle
   id="leftTop0"
   cx="518.29999"
   cy="117.6"
   r="0.80000001" />
	<circle
   id="leftTop1"
   cx="530.90002"
   cy="127.1"
   r="0.80000001" />
	<circle
   id="leftEye0"
   cx="528.20001"
   cy="160.2"
   r="0.80000001" />
	<circle
   id="leftBrow1"
   cx="530.09998"
   cy="148.7"
   r="0.80000001" />
	<circle
   id="leftBrow4"
   cx="506.5"
   cy="150.8"
   r="0.80000001" />
	<circle
   id="leftBrow3"
   cx="516.5"
   cy="147.60001"
   r="0.80000001" />
	<circle
   id="leftEye1"
   cx="523"
   cy="156.5"
   r="0.80000001" />
	<circle
   id="leftBrow0"
   cx="534.09998"
   cy="151.60001"
   r="0.80000001" />
	<circle
   id="leftBrow2"
   cx="523.79999"
   cy="147.2"
   r="0.80000001" />
	<circle
   id="leftEye5"
   cx="523"
   cy="162.5"
   r="0.80000001" />
	<circle
   id="leftEye2"
   cx="516.70001"
   cy="156.5"
   r="0.80000001" />
	<circle
   id="leftEye3"
   cx="511.5"
   cy="160.7"
   r="0.80000001" />
	<circle
   id="leftNose0"
   cx="508"
   cy="178.3"
   r="0.80000001" />
	<circle
   id="leftMouthCorner"
   cx="515.90002"
   cy="200.39999"
   r="0.80000001" />
	<circle
   id="leftNose1"
   cx="503.20001"
   cy="178.3"
   r="0.80000001" />
	<circle
   id="leftUpperLipTop0"
   cx="509"
   cy="197"
   r="0.80000001" />
	<circle
   id="leftUpperLipTop1"
   cx="502.60001"
   cy="195.89999"
   r="0.80000001" />
	<path
   id="leftMiddleLip"
   d="m 512.3,199.9 c 0.4,0 0.8,0.4 0.8,0.8 0,0.4 -0.4,0.8 -0.8,0.8 -0.4,0 -0.8,-0.4 -0.8,-0.8 0,-0.4 0.4,-0.8 0.8,-0.8 z" />
	<circle
   id="leftUpperLipBottom1"
   cx="502.39999"
   cy="199.89999"
   r="0.80000001" />
	<circle
   id="leftLowerLipTop0"
   cx="502.39999"
   cy="202.8"
   r="0.80000001" />
	<circle
   id="leftLowerLipBottom1"
   cx="502.60001"
   cy="209.5"
   r="0.80000001" />
	<circle
   id="leftLowerLipBottom0"
   cx="509.5"
   cy="206.7"
   r="0.80000001" />
	<circle
   id="leftEye4"
   cx="516.70001"
   cy="161.7"
   r="0.80000001" />
	<circle
   id="leftJaw7"
   cx="513.20001"
   cy="233"
   r="0.80000001" />
	<circle
   id="leftJaw6"
   cx="523.20001"
   cy="226.3"
   r="0.80000001" />
	<circle
   id="leftJaw5"
   cx="534.79999"
   cy="213.7"
   r="0.80000001" />
	<circle
   id="leftJaw4"
   cx="541.59998"
   cy="193.7"
   r="0.80000001" />
	<circle
   id="leftJaw3"
   cx="542.40002"
   cy="172.10001"
   r="0.80000001" />
	<circle
   id="leftJaw2"
   cx="542.40002"
   cy="162.5"
   r="0.80000001" />
	<circle
   id="leftJaw1"
   cx="541.59998"
   cy="150.8"
   r="0.80000001" />
	<circle
   id="leftJaw0"
   cx="539.09998"
   cy="141.60001"
   r="0.80000001" />
	<polyline
   style="fill:none;stroke:#000000;stroke-miterlimit:10"
   points="498.4,115.1 478.6,117.6 466.1,127.1 457.5,141.2    455,150.5 454.2,162.2 454.2,171.7 455,193.4 461.8,213.4 473.4,225.9 483.4,232.6 498.4,235.8 513.2,233 523.2,226.3 534.8,213.7    541.6,193.7 542.4,172.1 542.4,162.5 541.6,150.8 539.1,141.6 530.9,127.1 518.3,117.6 498.4,115.1  "
   id="polyline967" />
	<polyline
   style="fill:none;stroke:#000000;stroke-miterlimit:10"
   points="462.4,152 466.4,148.3 472.6,147.3 479.9,147.3    489.7,151.3  "
   id="polyline969" />
	<polygon
   style="fill:none;stroke:#000000;stroke-miterlimit:10"
   points="473.8,156.5 480.1,156.5 485.3,160.7 480.1,161.7 473.8,162.5 468.6,160.2 "
   id="polygon971" />
	<polyline
   style="fill:none;stroke:#000000;stroke-miterlimit:10"
   points="486.9,178.3 492.1,178.3 497.6,179.1 497.6,173.8    497.6,166.7 497.6,161.2 497.6,155.4  "
   id="polyline973" />
	<polyline
   style="fill:none;stroke:#000000;stroke-miterlimit:10"
   points="533.9,151.6 529.9,148.7 523.6,147.2 516.3,147.6    506.3,150.8  "
   id="polyline975" />
	<polygon
   style="fill:none;stroke:#000000;stroke-miterlimit:10"
   points="522.7,156.5 516.4,156.5 511.3,160.7 516.4,161.7 522.7,162.5 528,160.2 "
   id="polygon977" />
	<polyline
   style="fill:none;stroke:#000000;stroke-miterlimit:10"
   points="508,178.3 503,178.3 497.6,179.1  "
   id="polyline979" />
	<polygon
   style="fill:none;stroke:#000000;stroke-miterlimit:10"
   points="487.8,197 494.3,195.9 498.4,196.8 502.6,195.9 509,197 515.9,200.4 509.5,206.7 502.4,209.5 498.4,210 494.3,209.5 487.3,206.7 480.9,200.4 "
   id="polygon981" />
	<polyline
   style="fill:none;stroke:#000000;stroke-miterlimit:10"
   points="480.9,200.4 484.5,200.7 494.5,199.9 498.4,200.4    502.4,199.9 512.3,200.7 515.9,200.4  "
   id="polyline983" />
	<polyline
   style="fill:none;stroke:#000000;stroke-miterlimit:10"
   points="480.9,200.4 484.5,200.7 494.5,202.8 498.4,203.6    502.4,202.8 512.3,200.7 515.9,200.4  "
   id="polyline985" />
	<circle
   id="rightTop0"
   cx="478.70001"
   cy="117.6"
   r="0.80000001" />
	<circle
   id="rightTop1"
   cx="466.10001"
   cy="127.1"
   r="0.80000001" />
</g>
<path
   style="opacity:1;fill:#030303;fill-opacity:0.801242"
   d="m 406.54297,290.40227 c -39.95936,-43.43407 -66.0198,39.95936 -66.0198,39.95936 l -67.75716,227.59456 c 0,0 36.48462,-72.96925 5.21209,-3.47472 -31.27254,69.49452 43.43407,22.58572 43.43407,22.58572 l 72.96925,-194.58467 -76.44397,354.42207 -1.73737,3.47473 c 0,0 -6.94945,50.38353 3.47473,-1.73737 10.42418,-52.12089 53.85826,17.37363 53.85826,17.37363 0,0 -12.16155,66.0198 0,0 12.16154,-66.01979 55.59562,-3.47472 55.59562,-3.47472 0,0 -8.68682,76.44397 0,0 8.68681,-76.44398 57.33298,5.21209 57.33298,5.21209 0,0 -5.21209,90.34288 5.21209,-1.73737 10.42418,-92.08024 46.9088,3.47473 46.9088,3.47473 0,0 -6.94945,81.65607 0,0 6.94945,-81.65606 57.33298,1.73736 57.33298,1.73736 0,0 -5.21209,85.1308 0,0 5.21209,-85.13079 48.64617,-1.73736 48.64617,-1.73736 l -1.73736,5.21209 c 0,0 -10.42418,81.65607 0,0 10.42417,-81.65607 -38.22199,-382.21988 -38.22199,-382.21988 l 60.80771,161.57477 c 0,0 -43.43408,-107.71652 0,0 43.43407,107.71651 69.49452,3.47472 69.49452,3.47472 0,0 95.55497,246.70556 0,0 -95.55497,-246.70556 -93.81761,-246.70556 -93.81761,-246.70556 0,0 22.58572,55.59562 3.47473,5.21209 -19.11099,-50.38353 -130.30223,31.27254 -130.30223,31.27254 z"
   id="path770" /><g
   id="g3619"
   transform="matrix(0.76199713,0,0,0.6880602,127.96017,410.81557)">
	<path
   d="m 231.119,266.211 c -18.454,-28.938 -36.513,-58.246 -55.166,-87.125 -2.804,-4.901 -5.784,-9.701 -8.973,-14.375 -0.288,-0.423 -0.633,-0.678 -0.993,-0.865 -5.398,-8.19 -10.803,-16.376 -16.361,-24.445 0.203,-0.113 0.422,-0.163 0.615,-0.311 2.284,-1.755 2.954,-5.384 2.17,-8.423 3.729,1.874 8.338,1.447 11.191,-2.42 3.174,-4.302 1.144,-10.821 -3.65,-12.474 21.869,-24.051 22.641,-65.307 4.01,-91.62 C 142.627,-5.982 106.705,-4.7 76.443,10.48 c -63.37,31.787 -34.588,149.996 39.621,129.115 -0.661,3.187 -0.779,6.583 0.939,9.446 1.641,2.735 4.803,4.743 8.063,4.218 3.891,-0.628 5.991,-3.734 6.539,-7.273 2.232,1.442 5.128,1.862 7.783,0.325 0.455,-0.263 0.793,-0.597 1.164,-0.911 22.157,43.787 51.27,87.286 80.072,126.995 0.337,0.464 0.844,0.499 1.263,0.345 0.02,0.007 0.009,0.038 0.032,0.042 3.127,0.636 7.995,-1.176 8.693,-4.67 0.629,-0.358 1.01,-1.112 0.507,-1.901 z m -93.784,-136.26 c -1.301,-0.531 -2.452,1.226 -1.777,2.312 1.918,3.084 6.973,6.441 2.927,10.3 -2.571,2.452 -5.459,1.378 -7.007,-0.899 -0.221,-1.163 -0.544,-2.294 -1.073,-3.303 -0.011,-0.285 -0.058,-0.566 -0.027,-0.855 0.082,-0.764 -0.593,-1.021 -1.193,-0.885 -0.08,-0.093 -0.13,-0.216 -0.214,-0.305 -1.147,-1.224 -2.87,0.088 -2.609,1.519 0.606,3.326 3.907,10.751 -2.091,11.608 -5.884,0.84 -5.717,-7.899 -5.358,-11.505 0.01,-0.102 -0.065,-0.151 -0.078,-0.24 -0.021,-0.141 -0.06,-0.25 -0.123,-0.381 -0.059,-0.095 -0.098,-0.186 -0.185,-0.255 -0.294,-0.377 -0.713,-0.668 -1.325,-0.577 C 45.745,147.173 16.465,46.423 78.47,13.948 104.346,0.396 135.771,-1.8 156.591,21.404 c 21.862,24.364 22.393,68.166 -0.167,92.144 -0.693,0.737 -0.699,1.614 -0.344,2.316 -0.917,0.915 -0.472,2.781 1.203,2.999 4.144,0.541 5.694,5.081 2.821,8.095 -2.915,3.058 -7.467,1.728 -9.931,-1.154 -0.536,-0.627 -1.364,-0.293 -1.743,0.286 -0.714,0.088 -1.359,0.882 -1.085,1.578 0.968,2.463 4.322,7.151 0.299,8.644 -1.885,0.7 -3.642,-0.136 -5.207,-1.391 -1.025,-2.154 -2.765,-4.015 -5.102,-4.97 z"
   id="path3611" />
	<path
   d="M 105.419,103.029 C 101.157,96.125 93.265,92.393 85.478,91.363 c -0.71,-0.094 -1.293,0.107 -1.758,0.458 -0.006,0.003 -0.011,0.006 -0.016,0.009 -0.927,0.712 -1.304,2.078 -1.043,3.285 -1.149,6.74 -1.038,14.122 3.3,19.702 3.854,4.957 10.548,7.257 16.307,4.09 5.976,-3.286 6.508,-10.44 3.151,-15.878 z"
   id="path3613" />
	<path
   d="m 153.642,71.195 c -4.613,-10.02 -17.064,-13.008 -26.852,-15.396 -0.846,-0.206 -1.544,-0.071 -2.109,0.232 -0.596,-1 -2.43,-0.895 -2.893,0.394 -3.68,10.227 -2.825,23.239 3.676,32.241 5.046,6.987 14.965,11.162 22.773,5.882 7.42,-5.018 8.984,-15.58 5.405,-23.353 z"
   id="path3615" />
	<path
   d="m 134.237,113.581 c -1.316,-3.808 -6.36,-5.183 -10.012,-5.396 -1.688,-0.099 -2.948,1.468 -3.024,3.024 -0.142,2.947 0.242,6.014 1.705,8.612 1.123,1.994 4.569,1.189 4.432,-1.2 -0.065,-1.14 -0.149,-2.241 -0.198,-3.343 1.241,0.648 2.427,1.374 3.81,1.59 1.835,0.285 4.021,-1.163 3.287,-3.287 z"
   id="path3617" />
</g><g
   id="g3621"
   transform="translate(29.463853,285.72545)">
</g><g
   id="g3623"
   transform="translate(29.463853,285.72545)">
</g><g
   id="g3625"
   transform="translate(29.463853,285.72545)">
</g><g
   id="g3627"
   transform="translate(29.463853,285.72545)">
</g><g
   id="g3629"
   transform="translate(29.463853,285.72545)">
</g><g
   id="g3631"
   transform="translate(29.463853,285.72545)">
</g><g
   id="g3633"
   transform="translate(29.463853,285.72545)">
</g><g
   id="g3635"
   transform="translate(29.463853,285.72545)">
</g><g
   id="g3637"
   transform="translate(29.463853,285.72545)">
</g><g
   id="g3639"
   transform="translate(29.463853,285.72545)">
</g><g
   id="g3641"
   transform="translate(29.463853,285.72545)">
</g><g
   id="g3643"
   transform="translate(29.463853,285.72545)">
</g><g
   id="g3645"
   transform="translate(29.463853,285.72545)">
</g><g
   id="g3647"
   transform="translate(29.463853,285.72545)">
</g><g
   id="g3649"
   transform="translate(29.463853,285.72545)">
</g><g
   id="g12271"
   transform="matrix(2.0023248,0,0,1.641496,364.02295,-3.9272436)"><path
     d="m 92.72,94.69 c 14,2.6 23.28,7.25 23.28,12.56 0,8.15 -21.94,14.75 -49,14.75 -27.06,0 -49,-6.6 -49,-14.75 0,-5.1 8.6,-9.6 21.67,-12.25 z"
     style="fill:#8b5eaa"
     id="path12214" /><path
     d="m 54.55,112.51 a 24.67,24.67 0 0 1 -23.75,4.68 c -8,-2.62 -12.8,-6.11 -12.8,-9.94 0,-5.1 8.6,-9.6 21.67,-12.25 h 1.67 l -4.22,12.65 v 0 L 37,108 l 0.55,0.14 c 2.37,2.21 9,3.67 17,4.37 z"
     style="fill:#7b4d9e"
     id="path12216" /><path
     d="m 100.17,111.19 c 2.49,-2.74 2.44,-5.69 -0.4,-8.44 a 3.27,3.27 0 0 1 3.2,-5.51 q 1,0.32 2,0.69 c 16.42,6 13.35,13.9 -0.92,19 a 3.55,3.55 0 0 1 -3.88,-5.74 z"
     style="fill:#b091ce"
     id="path12218" /><path
     d="m 93.78,99 2.22,9 -1.15,0.32 c -3.3,2.55 -12.08,4.05 -21.85,4.52 v -10 c 8.86,-0.43 16.9,-1.7 20.78,-3.84 z"
     style="fill:#ffdca4"
     id="path12220" /><path
     d="m 96,108 -1.15,0.32 c -3.3,2.55 -12.08,4 -21.85,4.52 v -2.54 a 61.74,61.74 0 0 0 11,-2.58 5.59,5.59 0 0 0 3.78,-6.72 v 0 a 23.43,23.43 0 0 0 6,-2 z"
     style="fill:#ffe8c7"
     id="path12222" /><path
     d="m 39.84,99.55 c 4.15,1.84 11.81,3 20.16,3.32 v 10 c -10.91,-0.48 -20.61,-2.22 -22.89,-5.2 z"
     style="fill:#ffc050"
     id="path12224" /><path
     d="m 39.84,99.55 c 4.15,1.84 11.81,3 20.16,3.32 v 10 c -10.91,-0.48 -20.61,-2.22 -22.89,-5.2 z"
     style="fill:#db952e"
     id="path12226" /><path
     d="m 60,102.87 v 10 c -10.91,-0.48 -20.61,-2.22 -22.89,-5.2 l 0.09,-0.28 c 2.07,0.4 4.38,0.73 6.86,1 A 6.29,6.29 0 0 0 51,102.13 v 0 c 2.8,0.36 5.85,0.6 9,0.74 z"
     style="fill:#edab3f"
     id="path12228" /><path
     d="m 93.78,99 c -3.14,1.72 -9,2.88 -15.8,3.49 -1.62,0.14 -3.28,0.26 -5,0.34 V 100 H 60 v 2.87 a 92,92 0 0 1 -15,-1.74 27,27 0 0 1 -5.16,-1.58 l 1.36,-4 6.87,-20.45 v 0 L 45.82,70.64 43.47,66 53.86,53.36 57.24,49.25 54.59,36.85 53.9,33.6 52,34 20,22 60.09,9.21 h 0.13 a 8,8 0 0 1 9.72,4.32 L 89.18,56 l -6.1,12 5.12,8.3 4.52,18.36 z"
     style="fill:#8b5eaa"
     id="path12230" /><path
     d="m 93.78,99 c -3.14,1.72 -9,2.88 -15.8,3.49 -1.62,0.14 -3.28,0.26 -5,0.34 V 100 H 60 v 2.87 a 92,92 0 0 1 -15,-1.74 27,27 0 0 1 -5.16,-1.58 l 1.36,-4 6.87,-20.45 v 0 L 45.82,70.64 43.47,66 53.86,53.36 57.24,49.25 54.59,36.85 53.9,33.6 52,34 20,22 60.09,9.21 h 0.13 a 8,8 0 0 1 9.72,4.32 L 89.18,56 l -6.1,12 5.12,8.3 4.52,18.36 z"
     style="fill:#8b5eaa"
     id="path12232" /><path
     d="M 92.72,94.69 88.2,76.33 83.08,68 89.18,56 69.94,13.49 A 8,8 0 0 0 64,8.91 l 9.43,40.35 a 9.17,9.17 0 0 1 -4.48,10.1 v 0 a 8.1,8.1 0 0 0 -3.86,4.89 l -2.33,8.29 A 2.73,2.73 0 0 0 65.47,75 h 0.91 a 3.31,3.31 0 0 1 3.3,3 l 0.4,4.91 A 4.67,4.67 0 0 1 65.44,88 v 0 A 3.44,3.44 0 0 0 62,91.44 v 5.13 A 3.44,3.44 0 0 0 65.44,100 H 73 v 2.84 c 1.7,-0.08 3.36,-0.2 5,-0.34 6.81,-0.61 12.66,-1.77 15.8,-3.49 z"
     style="fill:#b091ce"
     id="path12234" /><path
     d="M 59.68,102.85 60,100 v 2.87 z"
     style="fill:#b091ce"
     id="path12236" /><polygon
     points="52.32,26.24 20,22 54.18,34.94 "
     style="fill:#7b4d9e"
     id="polygon12238" /><path
     d="M 45.69,99.07 45,101.13 a 27,27 0 0 1 -5.16,-1.58 l 8.23,-24.45 4.72,4.71 c 2.29,8.45 -2.62,13.37 -7.1,19.26 z"
     style="fill:#7b4d9e"
     id="path12240" /><path
     d="m 73,112.84 c -4.27,0.21 -8.73,0.21 -13,0 V 100 h 13 z"
     style="fill:#ffe8c7"
     id="path12242" /><path
     d="M 60.1,109.9 H 60 V 100 h 10 v 0.33 a 9.56,9.56 0 0 1 -9.9,9.57 z"
     style="fill:#ffc050"
     id="path12244" /><path
     d="m 106.12,95.15 c -3.71,-1.38 -5.81,4.24 -2.09,5.63 6.62,2.46 9,5 9,6.47 0,4.1 -15.8,11.75 -46,11.75 -30.2,0 -46,-7.65 -46,-11.75 0,-2 4.34,-5.75 16,-8.57 L 34.16,107 c -1.27,3.78 4.42,5.68 5.69,1.91 l 1.88,-5.58 A 75.2,75.2 0 0 0 57,105.59 v 4.06 a 77.68,77.68 0 0 1 -11,-1.36 c -3.87,-0.83 -5.13,5 -1.24,5.87 16.52,3.5 56.46,1.86 54.15,-6.93 C 89.63,69.58 92.49,77.56 86.53,67.89 l 5.34,-10.52 c 0.92,-1.82 1.67,1 -19.19,-45.12 A 11,11 0 0 0 59.3,6.31 L 19.09,19.14 a 3,3 0 0 0 -0.14,5.67 C 19.4,25 51.07,36.89 51.55,37 L 54,48.46 41.15,64.08 a 3,3 0 0 0 -0.36,3.26 l 4,8 L 39.2,92 C 30.87,93.39 15,98.28 15,107.25 c 0,23.6 104,23.6 104,0 0,-4.86 -4.33,-8.93 -12.88,-12.1 z M 63,109.87 v -4 c 2.28,0 4.37,0.05 7,0 v 4 c -2.32,0.01 -4.67,0.03 -7,0 z m 28.69,-6.81 0.85,3.47 c -3.28,1.42 -9.46,2.45 -16.55,3 v -3.94 c 6.01,-0.43 11.85,-1.22 15.7,-2.53 z M 59.55,51.15 c 1.24,-1.51 1,-0.76 -3.9,-23.69 -0.83,-3.87 -6.7,-2.63 -5.87,1.25 L 50.07,30.07 29.15,22.23 61.13,12 a 5,5 0 0 1 6.08,2.7 l 18.65,41.24 -3,6 -1.75,-2.84 C 79,55.69 73.89,58.83 76,62.21 l 9.4,15.29 4.86,19.72 C 88.16,98 83.31,99 76,99.55 A 3,3 0 0 0 73,97 H 60 a 3,3 0 0 0 -3,2.58 71.24,71.24 0 0 1 -13.41,-1.89 l 5.18,-15.41 a 3,3 0 0 0 4.29,-3.87 L 47,66.38 Z"
     style="fill:#31352e"
     id="path12246" /></g><g
   id="g13553"
   transform="matrix(2.3030224,0,0,2.6016316,424.05781,363.25011)"><g
     id="g13541"><path
       d="m 41,17 h -0.1 c -2.705,-1.27 -5.714,-2 -8.9,-2 -3.186,0 -6.195,0.73 -8.9,2 H 23 C 10.85,17 1,26.85 1,39 v 0 c 0,12.15 9.85,22 22,22 h 0.1 c 2.705,1.27 5.714,2 8.9,2 3.186,0 6.195,-0.73 8.9,-2 H 41 c 12.15,0 22,-9.85 22,-22 v 0 C 63,26.85 53.15,17 41,17 Z"
       fill="#ff6d1f"
       id="path13535" /><path
       d="m 21,4 v 0 c 0,1.657 1.343,3 3,3 v 0 c 2.761,0 5,2.239 5,5 v 3 h 6 V 12 C 35,5.925 30.075,1 24,1 v 0 c -1.657,0 -3,1.343 -3,3 z"
       fill="#a69d24"
       id="path13537" /><path
       d="M 17,29 27,39 H 17 Z M 47,29 37,39 H 47 Z M 17,44 c 0,8.284 6.716,15 15,15 v 0 c 8.284,0 15,-6.716 15,-15 v -1 h -6 v 4 h -6 v -4 h -6 v 4 h -6 v -4 h -6 z"
       fill="#732002"
       id="path13539" /></g><g
     id="g13551"><path
       d="m 17,40 h 10 c 0.404,0 0.769,-0.244 0.924,-0.617 0.155,-0.374 0.069,-0.804 -0.217,-1.09 l -10,-10 C 17.42,28.007 16.99,27.921 16.617,28.076 16.244,28.231 16,28.596 16,29 v 10 c 0,0.552 0.448,1 1,1 z M 18,31.414 24.586,38 H 18 Z"
       fill="#260a04"
       id="path13543" /><path
       d="m 47.383,28.076 c -0.375,-0.155 -0.805,-0.069 -1.09,0.217 l -10,10 c -0.286,0.286 -0.372,0.716 -0.217,1.09 C 36.231,39.756 36.596,40 37,40 h 10 c 0.552,0 1,-0.448 1,-1 V 29 c 0,-0.404 -0.244,-0.769 -0.617,-0.924 z M 46,38 H 39.414 L 46,31.414 Z"
       fill="#260a04"
       id="path13545" /><path
       d="m 47,42 h -6 c -0.552,0 -1,0.448 -1,1 v 3 h -4 v -3 c 0,-0.552 -0.448,-1 -1,-1 h -6 c -0.552,0 -1,0.448 -1,1 v 3 h -4 v -3 c 0,-0.552 -0.448,-1 -1,-1 h -6 c -0.552,0 -1,0.448 -1,1 v 1 c 0,8.822 7.178,16 16,16 8.822,0 16,-7.178 16,-16 v -1 c 0,-0.552 -0.448,-1 -1,-1 z M 32,58 C 24.28,58 18,51.72 18,44 h 4 v 3 c 0,0.552 0.448,1 1,1 h 6 c 0.552,0 1,-0.448 1,-1 v -3 h 4 v 3 c 0,0.552 0.448,1 1,1 h 6 c 0.552,0 1,-0.448 1,-1 v -3 h 4 c 0,7.72 -6.28,14 -14,14 z"
       fill="#260a04"
       id="path13547" /><path
       d="M 64,39 C 64,26.37 53.767,16.089 41.157,16.004 39.534,15.258 37.806,14.704 36,14.371 V 12 C 36,5.383 30.617,0 24,0 c -2.206,0 -4,1.794 -4,4 0,2.206 1.794,4 4,4 2.206,0 4,1.794 4,4 v 2.371 c -1.805,0.333 -3.534,0.887 -5.157,1.633 C 10.233,16.089 0,26.37 0,39 0,51.63 10.233,61.911 22.843,61.996 25.633,63.279 28.733,64 32,64 35.267,64 38.367,63.279 41.157,61.996 53.767,61.911 64,51.63 64,39 Z M 24,6 C 22.897,6 22,5.103 22,4 22,2.897 22.897,2 24,2 29.514,2 34,6.486 34,12 v 2.095 C 33.341,14.035 32.675,14 32,14 c -0.675,0 -1.341,0.035 -2,0.095 V 12 C 30,8.691 27.309,6 24,6 Z M 45.218,59.574 C 50.547,55.555 54,49.174 54,42 H 52 C 52,53.028 43.028,62 32,62 20.972,62 12,53.028 12,42 h -2 c 0,7.174 3.453,13.555 8.782,17.574 C 9.217,57.616 2,49.135 2,39 2,28.865 9.217,20.384 18.782,18.426 13.453,22.445 10,28.826 10,36 h 2 c 0,-11.028 8.972,-20 20,-20 11.028,0 20,8.972 20,20 h 2 C 54,28.826 50.547,22.445 45.218,18.426 54.783,20.384 62,28.865 62,39 62,49.135 54.783,57.616 45.218,59.574 Z"
       fill="#260a04"
       id="path13549" /></g></g></svg>
