<?xml version="1.0" encoding="utf-8"?>
<!-- Generator: Adobe Illustrator 26.0.2, SVG Export Plug-In . SVG Version: 6.00 Build 0)  -->
<svg version="1.1" id="Layer_1" xmlns="http://www.w3.org/2000/svg" xmlns:xlink="http://www.w3.org/1999/xlink" x="0px" y="0px"
	 viewBox="0 0 1000 1000" style="enable-background:new 0 0 1000 1000;" xml:space="preserve">
<style type="text/css">
	.st0{fill:#030303;fill-opacity:0.8012;}
	.st1{fill:#FF6D1F;}
	.st2{fill:#A69D24;}
	.st3{fill:#732002;}
	.st4{fill:#8B5EAA;}
	.st5{fill:#7B4D9E;}
	.st6{fill:#B091CE;}
	.st7{fill:#FFDCA4;}
	.st8{fill:#FFE8C7;}
	.st9{fill:#FFC050;}
	.st10{fill:#DB952E;}
	.st11{fill:#EDAB3F;}
	.st12{fill:#31352E;}
	.st13{fill:#FFFFFF;}
	.st14{fill:none;stroke:#000000;stroke-miterlimit:10;}
</style>
<g id="illustration">
	<path id="_x3C_路徑_x3E__00000147194822553432474560000008329922204988044479_" class="st0" d="M404.9,269.3
		c-40-43.4-66,40-66,40l-67.8,227.6c0,0,36.5-73,5.2-3.5s43.4,22.6,43.4,22.6l73-194.6l-76.4,354.4l-1.7,3.5c0,0-6.9,50.4,3.5-1.7
		s53.9,17.4,53.9,17.4s-12.2,66,0,0c12.2-66,55.6-3.5,55.6-3.5s-8.7,76.4,0,0c8.7-76.4,57.3,5.2,57.3,5.2s-5.2,90.3,5.2-1.7
		s46.9,3.5,46.9,3.5s-6.9,81.7,0,0s57.3,1.7,57.3,1.7s-5.2,85.1,0,0s48.6-1.7,48.6-1.7l-1.7,5.2c0,0-10.4,81.7,0,0
		S603,361.4,603,361.4l60.8,161.6c0,0-43.4-107.7,0,0s69.5,3.5,69.5,3.5s95.6,246.7,0,0s-93.8-246.7-93.8-246.7s22.6,55.6,3.5,5.2
		s-130.3,31.3-130.3,31.3L404.9,269.3z"/>
	<path id="path13535" class="st1" d="M525.4,447.2h-0.2c-6.2-3.3-13.2-5.2-20.5-5.2c-7.3,0-14.3,1.9-20.5,5.2H484
		c-28,0-50.7,25.6-50.7,57.2l0,0c0,31.6,22.7,57.2,50.7,57.2h0.2c6.2,3.3,13.2,5.2,20.5,5.2c7.3,0,14.3-1.9,20.5-5.2h0.2
		c28,0,50.7-25.6,50.7-57.2l0,0C576.1,472.8,553.4,447.2,525.4,447.2z"/>
	<path id="path13537" class="st2" d="M479.4,413.4L479.4,413.4c0,4.3,3.1,7.8,6.9,7.8l0,0c6.4,0,11.5,5.8,11.5,13v7.8h13.8v-7.8
		c0-15.8-11.3-28.6-25.3-28.6l0,0C482.5,405.6,479.4,409.1,479.4,413.4z"/>
	<path id="path13539" class="st3" d="M470.2,478.4l23,26h-23V478.4z M539.2,478.4l-23,26h23V478.4z M470.2,517.5
		c0,21.6,15.5,39,34.5,39l0,0c19.1,0,34.5-17.5,34.5-39v-2.6h-13.8v10.4h-13.8v-10.4h-13.8v10.4H484v-10.4h-13.8V517.5z"/>
	<path id="path12214" class="st4" d="M557.2,92.7c28,4.3,46.6,11.9,46.6,20.6c0,13.4-43.9,24.2-98.1,24.2s-98.1-10.8-98.1-24.2
		c0-8.4,17.2-15.8,43.4-20.1L557.2,92.7z"/>
	<path id="path12216" class="st5" d="M480.8,122c-13.1,9.2-31.2,12.1-47.6,7.7c-16-4.3-25.6-10-25.6-16.3c0-8.4,17.2-15.8,43.4-20.1
		h3.3l-8.4,20.8l0,0l-0.2,0.6l1.1,0.2C451.5,118.4,464.8,120.8,480.8,122z"/>
	<path id="path12218" class="st6" d="M572.1,119.8c5-4.5,4.9-9.3-0.8-13.9c-2.6-2-2.8-5.4-0.3-7.6c1.7-1.5,4.3-2.1,6.7-1.5
		c1.3,0.4,2.7,0.7,4,1.1c32.9,9.8,26.7,22.8-1.8,31.2c-3.7,1.2-7.8-0.3-9.2-3.3C569.7,123.8,570.2,121.5,572.1,119.8z"/>
	<path id="path12220" class="st7" d="M559.3,99.8l4.4,14.8l-2.3,0.5c-6.6,4.2-24.2,6.6-43.8,7.4v-16.4
		C535.5,105.4,551.6,103.3,559.3,99.8z"/>
	<path id="path12222" class="st8" d="M563.8,114.6l-2.3,0.5c-6.6,4.2-24.2,6.6-43.8,7.4v-4.2c7.5-0.9,14.9-2.3,22-4.2
		c5.7-1.4,9-6.3,7.6-11l0,0c4.2-0.6,8.2-1.7,12-3.3L563.8,114.6z"/>
	<path id="path12224" class="st9" d="M451.3,100.7c8.3,3,23.6,4.9,40.4,5.4v16.4c-21.8-0.8-41.3-3.6-45.8-8.5L451.3,100.7z"/>
	<path id="path12226" class="st10" d="M451.3,100.7c8.3,3,23.6,4.9,40.4,5.4v16.4c-21.8-0.8-41.3-3.6-45.8-8.5L451.3,100.7z"/>
	<path id="path12228" class="st11" d="M491.7,106.2v16.4c-21.8-0.8-41.3-3.6-45.8-8.5l0.2-0.5c4.1,0.7,8.8,1.2,13.7,1.6
		c6.9,0.6,13.1-3.5,13.8-9.2c0-0.4,0.1-0.7,0.1-1.1l0,0C479.3,105.5,485.4,105.9,491.7,106.2L491.7,106.2z"/>
	<path id="path12230" class="st4" d="M559.3,99.8c-6.3,2.8-18,4.7-31.6,5.7c-3.2,0.2-6.6,0.4-10,0.6v-4.6h-26v4.7
		c-10.1-0.3-20.1-1.2-30-2.9c-3.5-0.6-7-1.4-10.3-2.6l2.7-6.6l13.8-33.6l0,0l-4.5-7.3l-4.7-7.6l20.8-20.7l6.8-6.7l-5.3-20.4
		l-1.4-5.3l-3.8,0.7l-64.1-19.7l80.3-21h0.3c7.7-2,16.1,1,19.5,7.1l38.5,69.7l-12.2,19.7l10.3,13.6l9.1,30.1L559.3,99.8z"/>
	<path id="path12232" class="st4" d="M559.3,99.8c-6.3,2.8-18,4.7-31.6,5.7c-3.2,0.2-6.6,0.4-10,0.6v-4.6h-26v4.7
		c-10.1-0.3-20.1-1.2-30-2.9c-3.5-0.6-7-1.4-10.3-2.6l2.7-6.6l13.8-33.6l0,0l-4.5-7.3l-4.7-7.6l20.8-20.7l6.8-6.7l-5.3-20.4
		l-1.4-5.3l-3.8,0.7l-64.1-19.7l80.3-21h0.3c7.7-2,16.1,1,19.5,7.1l38.5,69.7l-12.2,19.7l10.3,13.6l9.1,30.1L559.3,99.8z"/>
	<path id="path12234" class="st6" d="M557.2,92.7l-9.1-30.1l-10.3-13.7l12.2-19.7l-38.5-69.8c-2.2-4-6.7-6.8-11.9-7.5l18.9,66.2
		c1.9,6.5-1.8,13.3-9,16.6l0,0c-3.8,1.7-6.6,4.6-7.7,8l-4.7,13.6c0.3,2.3,2.6,4,5.4,4h1.8c3.4,0,6.3,2.1,6.6,4.9l0.8,8.1
		c0.5,4.2-3.3,7.9-8.5,8.3c-0.3,0-0.5,0-0.8,0l0,0c-3.8,0-6.9,2.5-6.9,5.6c0,0,0,0,0,0v8.4c0,3.1,3.1,5.6,6.9,5.6h15.1v4.7
		c3.4-0.1,6.7-0.3,10-0.6c13.6-1,25.3-2.9,31.6-5.7L557.2,92.7z"/>
	<path id="path12236" class="st6" d="M491,106.1l0.6-4.7v4.7L491,106.1z"/>
	<polygon id="polygon12238" class="st5" points="476.3,-19.6 411.6,-26.6 480,-5.4 	"/>
	<path id="path12240" class="st5" d="M463,99.9l-1.4,3.4c-3.5-0.6-7-1.4-10.3-2.6l16.5-40.1l9.5,7.7C481.8,82.2,472,90.2,463,99.9
		L463,99.9z"/>
	<path id="path12242" class="st8" d="M517.7,122.5c-8.5,0.3-17.5,0.3-26,0v-21.1h26V122.5z"/>
	<path id="path12244" class="st9" d="M491.9,117.7h-0.2v-16.3h20v0.5c0,8.7-8.5,15.7-19.1,15.7C492.4,117.7,492.1,117.7,491.9,117.7
		z"/>
	<path id="path12246" class="st12" d="M584,93.5c-7.4-2.3-11.6,7-4.2,9.2c13.3,4,18,8.2,18,10.6c0,6.7-31.6,19.3-92.1,19.3
		s-92.1-12.6-92.1-19.3c0-3.3,8.7-9.4,32-14.1l-5.7,13.7c-2.5,6.2,8.9,9.3,11.4,3.1l3.8-9.2c10,2.1,20.3,3.3,30.6,3.7v6.7
		c-7.4-0.3-14.8-1.1-22-2.2c-7.7-1.4-10.3,8.2-2.5,9.6c33.1,5.7,113.1,3.1,108.4-11.4c-18.6-61.8-12.9-48.7-24.8-64.6l10.7-17.3
		c1.8-3,3.3,1.6-38.4-74.1c-4.6-8.4-16.1-12.6-26.8-9.8l-80.5,21.1c-3.2,0.8-4.9,3.6-3.9,6.2c0.6,1.4,1.9,2.6,3.6,3.1
		c0.9,0.3,64.3,19.8,65.3,20l4.9,18.8l-25.7,25.6c-1.5,1.5-1.8,3.6-0.7,5.4l8,13.1L450,88.3c-16.7,2.3-48.5,10.3-48.5,25
		c0,38.7,208.2,38.7,208.2,0C609.8,105.4,601.2,98.7,584,93.5z M497.7,117.6v-6.6c4.6,0,8.8,0.1,14,0v6.6
		C507.1,117.7,502.4,117.7,497.7,117.6z M555.1,106.5l1.7,5.7c-6.6,2.3-18.9,4-33.1,4.9v-6.5C535.7,109.9,547.4,108.6,555.1,106.5z
		 M490.8,21.3c2.5-2.5,2-1.2-7.8-38.9c-1.7-6.4-13.4-4.3-11.8,2.1l0.6,2.2l-41.9-12.9l64-16.8c4.8-1.3,10.1,0.6,12.2,4.4l37.3,67.7
		l-6,9.8l-3.5-4.7c-4.2-5.6-14.5-0.4-10.2,5.1l18.8,25.1l9.7,32.4c-4.2,1.3-13.9,2.9-28.6,3.8c-0.4-2.4-3-4.2-6-4.2h-26
		c-3,0-5.6,1.8-6,4.2c-9.1-0.3-18-1.4-26.9-3.1l10.4-25.3c2.8,1.5,6.5,0.8,8.3-1.5c1.1-1.5,1.2-3.3,0.3-4.8l-12.1-19.7L490.8,21.3z"
		/>
	<path d="M125.9,275.5c-1.3,0-2.5,0.1-3.7,0.4l-40.4-89.5c1.2,0,2.3-0.3,3.3-1.2c2.2-2.1,1-5.2-2.1-5.6c-1.3-0.2-1.6-1.4-0.9-2.1
		c-0.3-0.5-0.3-1.1,0.3-1.6c17.2-16.5,16.8-46.6,0.1-63.4c-0.6-0.6-1.2-1.2-1.8-1.7c-15.8-14.1-38.7-12.4-57.7-3.4
		c-39.1,18.5-30.6,69.1,4.4,81.9c7.3,2.7,15.7,3.7,25.1,2.4c0.5-0.1,0.8,0.1,1,0.4c0.1,0,0.1,0.1,0.1,0.2c0,0.1,0.1,0.2,0.1,0.3
		c0,0.1,0.1,0.1,0.1,0.2c-0.3,2.5-0.4,8.5,4.1,7.9c4.6-0.6,2.1-5.7,1.6-8c-0.2-1,1.1-1.9,2-1c0.1,0.1,0.1,0.1,0.2,0.2
		c0.5-0.1,1,0.1,0.9,0.6c0,0.2,0,0.4,0,0.6c0.4,0.7,0.6,1.5,0.8,2.3c1.1,1.4,3,2.2,4.8,1l45.2,84.2c-3.7,3.4-6.1,8.3-6.1,13.8
		c0,10.4,8.4,18.8,18.8,18.8s18.8-8.4,18.8-18.8S136.2,275.5,125.9,275.5z"/>
	<path class="st13" d="M17.5,146.6c-0.5-0.1-1,0.1-1.3,0.3c0,0,0,0,0,0c-0.7,0.5-1,1.4-0.8,2.3c-0.9,4.6-0.8,9.7,2.5,13.6
		c2.9,3.4,8,5,12.4,2.8c4.6-2.3,5-7.2,2.4-10.9C29.4,149.9,23.4,147.3,17.5,146.6z"/>
	<path class="st13" d="M69.4,132.7c-3.5-6.9-13-9-20.5-10.6c-0.6-0.1-1.2,0-1.6,0.2c-0.5-0.7-1.9-0.6-2.2,0.3
		c-2.8,7-2.2,16,2.8,22.2c3.8,4.8,11.4,7.7,17.4,4C70.9,145.3,72.1,138.1,69.4,132.7z"/>
	<path class="st13" d="M51.9,162.2c-1.2-0.1-2.1,0.9-2.1,1.9c-0.1,1.9,0.2,3.8,1.2,5.5c0.8,1.3,3.2,0.8,3.1-0.8
		c0-0.7-0.1-1.4-0.1-2.1c0.9,0.4,1.7,0.9,2.7,1c1.3,0.2,2.8-0.7,2.3-2.1C58,163.2,54.5,162.3,51.9,162.2z"/>
</g>
<g id="skeleton_1_">
	<circle id="rightShoulder" cx="392.8" cy="294.3" r="8.2"/>
	<circle id="rightElbow" cx="289.3" cy="294.4" r="8.2"/>
	
		<ellipse id="rightWrist" transform="matrix(0.9231 -0.3846 0.3846 0.9231 -106.0086 71.567)" cx="125.9" cy="300.8" rx="8.2" ry="8.2"/>
	<circle id="rightHip" cx="443.1" cy="510.1" r="8.2"/>
	<circle id="rightKnee" cx="449.5" cy="670.3" r="8.2"/>
	<circle id="rightAnkle" cx="449.5" cy="878.3" r="8.2"/>
	<circle id="leftShoulder" cx="605.7" cy="294.3" r="8.2"/>
	<circle id="leftElbow" cx="710.1" cy="294" r="8.2"/>
	<circle id="leftWrist" cx="873.5" cy="300.3" r="8.2"/>
	<circle id="leftHip" cx="559.5" cy="509.3" r="8.2"/>
	<circle id="leftKnee" cx="559.5" cy="670.3" r="8.2"/>
	<circle id="leftAnkle" cx="559.5" cy="878.3" r="8.2"/>
	<polygon class="st14" points="392.7,294.6 443,510.4 559.4,509.6 605.6,294.6 	"/>
	<polyline class="st14" points="391.7,294.6 289,294.6 125.7,300.9 	"/>
	<polyline class="st14" points="607.1,294.2 710.3,294.2 873.6,300.6 	"/>
	<polyline class="st14" points="443,510.4 449.4,670.6 449.4,878.6 	"/>
	<polyline class="st14" points="559.4,509.6 559.4,670.6 559.4,878.6 	"/>
	<circle id="rightEye0" cx="468.6" cy="160.2" r="0.8"/>
	<circle id="rightBrow1" cx="466.4" cy="148.3" r="0.8"/>
	<circle id="rightBrow4" cx="489.7" cy="151.3" r="0.8"/>
	<circle id="nose1" cx="497.6" cy="161.2" r="0.8"/>
	<circle id="rightBrow3" cx="479.9" cy="147.3" r="0.8"/>
	<circle id="rightEye1" cx="473.8" cy="156.5" r="0.8"/>
	<circle id="rightBrow0" cx="462.4" cy="152" r="0.8"/>
	<circle id="rightBrow2" cx="472.6" cy="147.3" r="0.8"/>
	<circle id="rightEye5" cx="473.8" cy="162.5" r="0.8"/>
	<circle id="rightEye2" cx="480.1" cy="156.5" r="0.8"/>
	<circle id="rightEye3" cx="485.3" cy="160.7" r="0.8"/>
	<circle id="nose0" cx="497.6" cy="155.4" r="0.8"/>
	<circle id="nose3" cx="497.6" cy="173.8" r="0.8"/>
	<circle id="rightNose0" cx="486.9" cy="178.3" r="0.8"/>
	<circle id="rightMouthCorner" cx="480.9" cy="200.4" r="0.8"/>
	<circle id="rightNose1" cx="492.1" cy="178.3" r="0.8"/>
	<circle id="rightUpperLipTop0" cx="487.8" cy="197" r="0.8"/>
	<circle id="nose2" cx="497.6" cy="166.7" r="0.8"/>
	<circle id="nose4" cx="497.6" cy="179.1" r="0.8"/>
	<circle id="upperLipTopMid" cx="498.4" cy="196.8" r="0.8"/>
	<circle id="rightUpperLipTop1" cx="494.3" cy="195.9" r="0.8"/>
	<path id="rightMiddleLip" d="M484.5,199.9c0.4,0,0.8,0.4,0.8,0.8c0,0.4-0.4,0.8-0.8,0.8s-0.8-0.4-0.8-0.8S484.1,199.9,484.5,199.9z
		"/>
	<circle id="lowerLipBottomMid" cx="498.4" cy="210" r="0.8"/>
	<circle id="upperLipBottomMid" cx="498.4" cy="200.4" r="0.8"/>
	<circle id="lowerLipTopMid" cx="498.4" cy="203.5" r="0.8"/>
	<circle id="rightUpperLipBottom1" cx="494.5" cy="199.9" r="0.8"/>
	<circle id="rightLowerLipTop0" cx="494.5" cy="202.8" r="0.8"/>
	<circle id="rightLowerLipBottom1" cx="494.3" cy="209.5" r="0.8"/>
	<circle id="rightLowerLipBottom0" cx="487.3" cy="206.7" r="0.8"/>
	<circle id="rightEye4" cx="480.1" cy="161.7" r="0.8"/>
	<circle id="jawMid" cx="498.4" cy="235.8" r="0.8"/>
	<circle id="rightJaw7" cx="483.4" cy="232.6" r="0.8"/>
	<circle id="rightJaw6" cx="473.4" cy="225.9" r="0.8"/>
	<circle id="rightJaw5" cx="461.8" cy="213.4" r="0.8"/>
	<circle id="rightJaw4" cx="455" cy="193.4" r="0.8"/>
	<circle id="rightJaw3" cx="454.2" cy="171.7" r="0.8"/>
	<circle id="rightJaw2" cx="454.2" cy="162.2" r="0.8"/>
	<circle id="rightJaw1" cx="455" cy="150.5" r="0.8"/>
	<circle id="rightJaw0" cx="457.5" cy="141.2" r="0.8"/>
	<circle id="topMid" cx="498.6" cy="115.1" r="0.8"/>
	<circle id="leftTop0" cx="518.3" cy="117.6" r="0.8"/>
	<circle id="leftTop1" cx="530.9" cy="127.1" r="0.8"/>
	<circle id="leftEye0" cx="528.2" cy="160.2" r="0.8"/>
	<circle id="leftBrow1" cx="530.1" cy="148.7" r="0.8"/>
	<circle id="leftBrow4" cx="506.5" cy="150.8" r="0.8"/>
	<circle id="leftBrow3" cx="516.5" cy="147.6" r="0.8"/>
	<circle id="leftEye1" cx="523" cy="156.5" r="0.8"/>
	<circle id="leftBrow0" cx="534.1" cy="151.6" r="0.8"/>
	<circle id="leftBrow2" cx="523.8" cy="147.2" r="0.8"/>
	<circle id="leftEye5" cx="523" cy="162.5" r="0.8"/>
	<circle id="leftEye2" cx="516.7" cy="156.5" r="0.8"/>
	<circle id="leftEye3" cx="511.5" cy="160.7" r="0.8"/>
	<circle id="leftNose0" cx="508" cy="178.3" r="0.8"/>
	<circle id="leftMouthCorner" cx="515.9" cy="200.4" r="0.8"/>
	<circle id="leftNose1" cx="503.2" cy="178.3" r="0.8"/>
	<circle id="leftUpperLipTop0" cx="509" cy="197" r="0.8"/>
	<circle id="leftUpperLipTop1" cx="502.6" cy="195.9" r="0.8"/>
	<path id="leftMiddleLip" d="M512.3,199.9c0.4,0,0.8,0.4,0.8,0.8c0,0.4-0.4,0.8-0.8,0.8c-0.4,0-0.8-0.4-0.8-0.8
		S511.9,199.9,512.3,199.9z"/>
	<circle id="leftUpperLipBottom1" cx="502.4" cy="199.9" r="0.8"/>
	<circle id="leftLowerLipTop0" cx="502.4" cy="202.8" r="0.8"/>
	<circle id="leftLowerLipBottom1" cx="502.6" cy="209.5" r="0.8"/>
	<circle id="leftLowerLipBottom0" cx="509.5" cy="206.7" r="0.8"/>
	<circle id="leftEye4" cx="516.7" cy="161.7" r="0.8"/>
	<circle id="leftJaw7" cx="513.2" cy="233" r="0.8"/>
	<circle id="leftJaw6" cx="523.2" cy="226.3" r="0.8"/>
	<circle id="leftJaw5" cx="534.8" cy="213.7" r="0.8"/>
	<circle id="leftJaw4" cx="541.6" cy="193.7" r="0.8"/>
	<circle id="leftJaw3" cx="542.4" cy="172.1" r="0.8"/>
	<circle id="leftJaw2" cx="542.4" cy="162.5" r="0.8"/>
	<circle id="leftJaw1" cx="541.6" cy="150.8" r="0.8"/>
	<circle id="leftJaw0" cx="539.1" cy="141.6" r="0.8"/>
	<polyline class="st14" points="498.4,115.1 478.6,117.6 466.1,127.1 457.5,141.2 455,150.5 454.2,162.2 454.2,171.7 455,193.4 
		461.8,213.4 473.4,225.9 483.4,232.6 498.4,235.8 513.2,233 523.2,226.3 534.8,213.7 541.6,193.7 542.4,172.1 542.4,162.5 
		541.6,150.8 539.1,141.6 530.9,127.1 518.3,117.6 498.4,115.1 	"/>
	<polyline class="st14" points="462.4,152 466.4,148.3 472.6,147.3 479.9,147.3 489.7,151.3 	"/>
	<polygon class="st14" points="468.6,160.2 473.8,156.5 480.1,156.5 485.3,160.7 480.1,161.7 473.8,162.5 	"/>
	<polyline class="st14" points="486.9,178.3 492.1,178.3 497.6,179.1 497.6,173.8 497.6,166.7 497.6,161.2 497.6,155.4 	"/>
	<polyline class="st14" points="533.9,151.6 529.9,148.7 523.6,147.2 516.3,147.6 506.3,150.8 	"/>
	<polygon class="st14" points="528,160.2 522.7,156.5 516.4,156.5 511.3,160.7 516.4,161.7 522.7,162.5 	"/>
	<polyline class="st14" points="508,178.3 503,178.3 497.6,179.1 	"/>
	<polygon class="st14" points="480.9,200.4 487.8,197 494.3,195.9 498.4,196.8 502.6,195.9 509,197 515.9,200.4 509.5,206.7 
		502.4,209.5 498.4,210 494.3,209.5 487.3,206.7 	"/>
	<polyline class="st14" points="480.9,200.4 484.5,200.7 494.5,199.9 498.4,200.4 502.4,199.9 512.3,200.7 515.9,200.4 	"/>
	<polyline class="st14" points="480.9,200.4 484.5,200.7 494.5,202.8 498.4,203.6 502.4,202.8 512.3,200.7 515.9,200.4 	"/>
	<circle id="rightTop0" cx="478.7" cy="117.6" r="0.8"/>
	<circle id="rightTop1" cx="466.1" cy="127.1" r="0.8"/>
</g>
</svg>
